<?xml version="1.0" standalone="no"?>
<!DOCTYPE svg PUBLIC "-//W3C//DTD SVG 1.1//EN" "http://www.w3.org/Graphics/SVG/1.1/DTD/svg11.dtd" >
<svg xmlns="http://www.w3.org/2000/svg" xmlns:xlink="http://www.w3.org/1999/xlink" version="1.1">
<metadata>
Created by FontForge 20170731 at Thu Sep 22 11:44:30 2016
 By Aleksey,,,
Copyright (c) Olivier Gourvat - Mostardesign Studio, 2012. All rights reserved.
</metadata>
<defs>
<font id="SofiaPro-Bold" horiz-adv-x="1349" >
  <font-face 
    font-family="Sofia Pro"
    font-weight="700"
    font-stretch="normal"
    units-per-em="2048"
    panose-1="2 11 0 0 0 0 0 0 0 0"
    ascent="1544"
    descent="-504"
    x-height="956"
    cap-height="1411"
    bbox="-203 -483 2132 2056"
    underline-thickness="102"
    underline-position="-306"
    unicode-range="U+0020-FB04"
  />
<missing-glyph horiz-adv-x="748" 
d="M68 0v1365h544v-1365h-544zM136 68h408v1229h-408v-1229z" />
    <glyph glyph-name="uniFB01" unicode="fi" horiz-adv-x="1423" 
d="M47 731v225h180v66q0 219 112.5 337t319.5 118h105v-273h-105q-145 0 -145 -182v-66h778v-956h-282v731h-496v-731h-287v731h-180zM973 1311q0 69 52 117.5t126 48.5q72 0 123 -48.5t51 -117.5t-51 -118.5t-123 -49.5q-73 0 -125.5 49.5t-52.5 118.5z" />
    <glyph glyph-name="uniFB02" unicode="fl" horiz-adv-x="1388" 
d="M47 731v225h180v66q0 219 112.5 337t319.5 118h598v-1477h-284v1204h-314q-145 0 -145 -182v-66h193v-225h-193v-731h-287v731h-180z" />
    <glyph glyph-name="uniFB03" unicode="ffi" horiz-adv-x="2230" 
d="M47 731v225h180v66q0 219 112.5 337t319.5 118h105v-273h-105q-145 0 -145 -182v-66h520v66q0 219 112.5 337t319.5 118h105v-273h-105q-145 0 -145 -182v-66h778v-956h-282v731h-496v-731h-287v731h-520v-731h-287v731h-180zM1780 1311q0 69 52 117.5t126 48.5
q72 0 123 -48.5t51 -117.5t-51 -118.5t-123 -49.5q-73 0 -125.5 49.5t-52.5 118.5z" />
    <glyph glyph-name="uniFB04" unicode="ffl" horiz-adv-x="2195" 
d="M47 731v225h180v66q0 219 112.5 337t319.5 118h105v-273h-105q-145 0 -145 -182v-66h520v66q0 219 112.5 337t319.5 118h598v-1477h-284v1204h-314q-145 0 -145 -182v-66h192v-225h-192v-731h-287v731h-520v-731h-287v731h-180z" />
    <glyph glyph-name=".notdef" horiz-adv-x="748" 
d="M68 0v1365h544v-1365h-544zM136 68h408v1229h-408v-1229z" />
    <glyph glyph-name="glyph1" horiz-adv-x="0" 
 />
    <glyph glyph-name="glyph2" horiz-adv-x="682" 
 />
    <glyph glyph-name="space" unicode=" " horiz-adv-x="499" 
 />
    <glyph glyph-name="exclam" unicode="!" horiz-adv-x="579" 
d="M113 152q0 73 51 121.5t125 48.5t126 -49t52 -121q0 -73 -52 -122.5t-126 -49.5t-125 49.5t-51 122.5zM133 1411h316l-41 -985h-234z" />
    <glyph glyph-name="quotedbl" unicode="&#x22;" horiz-adv-x="747" 
d="M129 1411h201l-23 -608h-155zM418 1411h200l-22 -608h-156z" />
    <glyph glyph-name="numbersign" unicode="#" horiz-adv-x="1480" 
d="M72 334l53 188h231l105 344h-230l54 189h231l107 356h227l-107 -356h207l109 356h225l-108 -356h235l-53 -189h-236l-106 -344h235l-55 -188h-233l-109 -334h-223l104 334h-209l-106 -334h-221l106 334h-233zM582 522h206l107 344h-209z" />
    <glyph glyph-name="dollar" unicode="$" horiz-adv-x="1177" 
d="M82 414h301q5 -74 61 -122t150 -48q92 0 149 41t58 108q2 56 -36 94t-134 66l-170 47q-365 114 -365 406q0 171 119 284q121 115 303 133v219h150v-221q177 -25 284 -138.5t107 -287.5h-299q0 73 -48 116.5t-134 43.5q-80 0 -131.5 -40t-51.5 -101q0 -100 152 -144
l168 -53q396 -114 387 -426q-3 -181 -127 -287q-125 -104 -307 -122v-236h-150v236q-198 21 -317 137q-119 119 -119 295z" />
    <glyph glyph-name="percent" unicode="%" horiz-adv-x="1417" 
d="M74 1081q0 114 78 195q80 80 194 80q113 0 193 -80q82 -79 82 -195q0 -114 -80 -194q-81 -78 -195 -78q-113 0 -194 78q-78 81 -78 194zM240 1081q0 -45 29.5 -75.5t76.5 -30.5q45 0 77 31t32 75t-32.5 76.5t-76.5 32.5t-75 -32t-31 -77zM303 0l660 1341h141l-660 -1341
h-141zM799 252q0 113 78 194q80 80 194 80t193 -82q82 -79 82 -192q0 -115 -80 -195q-80 -77 -195 -77q-114 0 -194 77q-78 81 -78 195zM965 252q0 -47 29.5 -77t76.5 -30q34 0 61.5 19.5t39.5 47t6.5 60t-31.5 56.5q-24 26 -56 31.5t-59.5 -6.5t-47 -39.5t-19.5 -61.5z" />
    <glyph glyph-name="ampersand" unicode="&#x26;" horiz-adv-x="1421" 
d="M104 391q0 279 234 361q-79 25 -128.5 101t-49.5 179q0 155 116 271q115 115 295 124q254 12 404 -182l-242 -147q-53 53 -115 53q-68 0 -106.5 -40.5t-38.5 -98.5q0 -8 1 -19.5t10 -38.5t25 -48t49.5 -37.5t78.5 -16.5h233v160h265v-160h163v-229h-163v-209
q0 -120 34 -154q33 -33 156 -33v-247q-195 3 -274 34q-89 35 -123 142q-38 -80 -142 -129q-103 -47 -200 -47q-206 0 -344 114q-138 117 -138 297zM413 450q-3 -21 3 -36q34 -156 213 -156q82 0 162 59q79 61 79 193v113h-241q-47 0 -85 -11.5t-61 -29.5t-40 -41t-22 -46.5
t-8 -44.5z" />
    <glyph glyph-name="quotesingle" unicode="'" horiz-adv-x="458" 
d="M129 1411h201l-23 -608h-155z" />
    <glyph glyph-name="parenleft" unicode="(" horiz-adv-x="794" 
d="M80 467q0 414 184 686q188 274 465 274v-223q-103 0 -197 -104q-95 -105 -153 -277q-60 -177 -60 -356q0 -278 127 -500q128 -223 283 -223v-221q-278 0 -465 266q-184 263 -184 678z" />
    <glyph glyph-name="parenright" unicode=")" horiz-adv-x="794" 
d="M66 -256q155 0 280 223q129 221 129 500q0 182 -59 356q-60 173 -155.5 277t-194.5 104v223q277 0 462 -274q187 -272 187 -686q0 -415 -187 -678q-184 -266 -462 -266v221z" />
    <glyph glyph-name="asterisk" unicode="*" horiz-adv-x="974" 
d="M90 1087l64 191l247 -98l-16 268h205l-19 -266l252 96l60 -191l-256 -69l170 -213l-160 -113l-145 221l-156 -225l-156 119l168 207z" />
    <glyph glyph-name="plus" unicode="+" horiz-adv-x="1042" 
d="M100 430v209h316v315h209v-315h317v-209h-317v-317h-209v317h-316z" />
    <glyph glyph-name="comma" unicode="," horiz-adv-x="579" 
d="M2 -207q73 100 117 243.5t43 287.5h289q-3 -218 -84 -365q-82 -155 -181 -235z" />
    <glyph glyph-name="hyphen" unicode="-" horiz-adv-x="972" 
d="M125 391v225h723v-225h-723z" />
    <glyph glyph-name="period" unicode="." horiz-adv-x="571" 
d="M109 152q0 73 51 121.5t125 48.5t126 -49t52 -121q0 -73 -52 -122.5t-126 -49.5t-125 49.5t-51 122.5z" />
    <glyph glyph-name="slash" unicode="/" horiz-adv-x="1024" 
d="M59 0l678 1411h228l-678 -1411h-228z" />
    <glyph glyph-name="zero" unicode="0" horiz-adv-x="1236" 
d="M119 672q0 696 502 696q282 0 395 -205q102 -181 102 -491q0 -307 -102 -488q-54 -99 -154.5 -151.5t-240.5 -52.5q-502 0 -502 692zM406 672q0 -414 215 -414q210 0 210 414q0 418 -210 418q-215 0 -215 -418z" />
    <glyph glyph-name="one" unicode="1" horiz-adv-x="772" 
d="M80 862v252l516 246v-1360h-287v961z" />
    <glyph glyph-name="two" unicode="2" horiz-adv-x="1122" 
d="M104 0v156l551 653q72 84 72 152q0 57 -46 95t-122 38q-74 0 -126 -52t-64 -135l-263 45q31 193 156 304.5t313 111.5q183 0 310 -115q129 -114 129 -292q0 -180 -142 -340l-309 -351h414v-270h-873z" />
    <glyph glyph-name="three" unicode="3" horiz-adv-x="1130" 
d="M68 264l251 125q21 -45 82 -88q55 -38 117 -41q71 -4 129 41t64 102q2 11 2 23.5t-2.5 35.5t-14 43t-30.5 39t-54.5 29t-83.5 9h-141v245h141q131 0 131 146q0 47 -36.5 88t-98.5 41q-94 0 -141 -74l-231 141q62 98 173.5 152t243.5 47q175 -9 287 -121
q114 -111 111 -256q0 -79 -46.5 -149t-125.5 -113q111 -42 174 -147q64 -107 55 -217q-15 -170 -172 -285q-156 -111 -356 -96q-138 7 -255 84.5t-173 195.5z" />
    <glyph glyph-name="four" unicode="4" horiz-adv-x="1232" 
d="M39 301l627 1040h303v-798h170v-242h-170v-301h-289v301h-641zM430 543h250v418z" />
    <glyph glyph-name="five" unicode="5" horiz-adv-x="1212" 
d="M88 250l242 156q38 -61 104 -100.5t129 -39.5q114 0 190 60.5t76 146.5q0 106 -67 162.5t-180 56.5q-86 0 -166.5 -36.5t-128.5 -110.5l-158 82l111 714h786v-262h-559l-35 -217q76 70 246 70q186 0 313 -121q125 -119 125 -338q0 -217 -151 -356q-149 -137 -402 -137
q-139 0 -267.5 74t-207.5 196z" />
    <glyph glyph-name="six" unicode="6" horiz-adv-x="1200" 
d="M122 587.5q-1 69.5 4 144t17 142t33 133.5t51 120.5t73 101t96 78t123.5 48t152.5 13.5q71 -3 129 -17.5t111 -44.5t96.5 -79.5t76.5 -118.5l-268 -115q-52 107 -155 107q-68 -1 -120 -35.5t-80 -90.5t-39.5 -123t-6.5 -138q13 45 88 100q68 51 182 51q160 0 285 -119
q127 -121 127 -333q0 -194 -135 -314q-130 -118 -353 -118q-192 0 -327 126q-136 130 -154 340q-6 72 -7 141.5zM449 428.5q0 -71.5 51 -125.5q54 -51 125.5 -51t122.5 51q54 54 54 125.5t-54 122.5q-51 54 -122.5 54t-125.5 -54q-51 -51 -51 -122.5z" />
    <glyph glyph-name="seven" unicode="7" horiz-adv-x="1126" 
d="M88 1077v264h1012l-592 -1341h-326l473 1077h-567z" />
    <glyph glyph-name="eight" unicode="8" horiz-adv-x="1220" 
d="M100 430q0 109 51 198t142 140q-96 93 -96 225q0 156 120 264q123 111 293 111t293 -111q123 -108 123 -264q0 -137 -98 -225q89 -52 140.5 -141.5t51.5 -196.5q0 -190 -149 -321q-147 -129 -361 -129q-212 0 -362 129q-148 133 -148 321zM387 444q0 -84 65.5 -141
t157.5 -57t158 57t66 141q0 85 -61.5 143t-164.5 58q-101 0 -161 -58t-60 -143zM473 985q0 -57 36.5 -93t100.5 -36t101 36t37 93q0 52 -38.5 88.5t-99.5 36.5t-99 -36t-38 -89z" />
    <glyph glyph-name="nine" unicode="9" horiz-adv-x="1198" 
d="M106 936q0 191 134 313q134 119 354 119q193 0 328 -129q135 -126 153 -338q7 -82 7 -159.5t-7 -161t-25 -157.5t-45 -144t-71 -125t-100 -95.5t-133 -61t-169 -17.5q-71 3 -129 17.5t-111 44.5t-96.5 79.5t-76.5 118.5l268 114q52 -106 156 -106q93 0 151 61
q104 107 94 326q-53 -152 -270 -152q-162 0 -287 119t-125 334zM404 920q0 -71 51 -125q54 -51 125 -51t122 51q54 54 54 125t-54 122q-51 54 -122 54t-125 -54q-51 -51 -51 -122z" />
    <glyph glyph-name="colon" unicode=":" horiz-adv-x="630" 
d="M139 152q0 75 51 120q51 50 125 50t125 -50q52 -46 52 -120t-52 -123q-51 -49 -125 -49t-125 49q-51 48 -51 123zM139 805q0 73 51 123t125 50t125 -50t51 -123t-51 -123q-51 -47 -125 -47t-125 47q-51 50 -51 123z" />
    <glyph glyph-name="semicolon" unicode=";" horiz-adv-x="626" 
d="M20 -207q73 100 117 243.5t43 287.5h289q-3 -218 -84 -365q-83 -156 -180 -235zM156 805q0 73 51 123t125 50t125 -50t51 -123t-51 -123q-51 -47 -125 -47t-125 47q-51 50 -51 123z" />
    <glyph glyph-name="less" unicode="&#x3c;" horiz-adv-x="1277" 
d="M94 500v229l1028 393l2 -225l-741 -283l741 -282l-2 -226z" />
    <glyph glyph-name="equal" unicode="=" horiz-adv-x="1220" 
d="M139 305v201h942v-201h-942zM139 717v201h942v-201h-942z" />
    <glyph glyph-name="greater" unicode="&#x3e;" horiz-adv-x="1277" 
d="M154 332l741 282l-741 283l2 225l1028 -393v-229l-1028 -394z" />
    <glyph glyph-name="question" unicode="?" horiz-adv-x="1015" 
d="M78 999q0 196 119 312t313 116q193 0 313 -108q119 -107 119 -291q0 -144 -74.5 -246t-199.5 -141q-61 -19 -84 -56.5t-23 -113.5l-4 -45h-278l-5 45q0 138 15 211q18 69 60.5 108t148.5 93l82 35q47 25 61 48t14 64q0 47 -41 79t-104 32q-66 0 -105.5 -39.5
t-39.5 -102.5h-287zM246 152q0 73 51 121.5t125 48.5t126 -49t52 -121q0 -73 -52 -122.5t-126 -49.5t-125 49.5t-51 122.5z" />
    <glyph glyph-name="at" unicode="@" horiz-adv-x="1974" 
d="M92 526q0 375 256 637q258 264 629 264q144 4 284 -38t255.5 -122.5t203 -187t135.5 -240.5t46 -276q0 -77 -12.5 -156t-43 -160t-75 -143t-114.5 -101.5t-155 -39.5q-138 0 -222.5 79.5t-84.5 236.5v258q0 100 -70 170q-69 69 -168 69t-168 -69t-69 -170q0 -97 69 -166
q70 -70 168 -70q94 0 162 51v-192q-85 -39 -162 -39q-173 0 -297 121q-122 119 -122 295q0 178 122 297q122 122 297 122q171 0 291 -114q125 -113 131 -285v-291q0 -63 34 -93t89 -30q62 0 107.5 41.5t66.5 110.5q41 122 41 268q0 293 -217 486q-217 196 -522 196
q-295 0 -500 -211q-203 -209 -203 -508q0 -297 203 -503q205 -205 500 -205h67v-183h-67q-373 0 -629 259t-256 632z" />
    <glyph glyph-name="A" unicode="A" 
d="M-12 0l524 1411h326l522 -1411h-316l-124 334h-488l-125 -334h-319zM530 594h293l-149 491z" />
    <glyph glyph-name="B" unicode="B" horiz-adv-x="1304" 
d="M166 0v1411h565q191 0 304.5 -106.5t113.5 -286.5q0 -84 -49 -155.5t-144 -108.5q130 -35 197 -129q70 -94 70 -193q0 -181 -123 -307q-122 -125 -328 -125h-606zM467 264h289q69 0 110 51t41 123q0 69 -43 118.5t-114 49.5h-283v-342zM467 854h235q57 0 94.5 41
t37.5 104q0 69 -34.5 108.5t-99.5 39.5h-233v-293z" />
    <glyph glyph-name="C" unicode="C" horiz-adv-x="1431" 
d="M84 702q0 303 203 515q204 210 506 210q182 0 337 -80.5t250 -218.5l-243 -167q-126 184 -344 184q-174 0 -291 -129q-117 -126 -117 -314q0 -184 117 -313q118 -127 291 -127q106 0 198 52.5t154 142.5l241 -168q-95 -144 -250.5 -226.5t-342.5 -82.5q-302 0 -506 210
q-203 212 -203 512z" />
    <glyph glyph-name="D" unicode="D" horiz-adv-x="1447" 
d="M166 0v1411h553q296 0 467 -201q170 -200 170 -508t-170 -505t-467 -197h-553zM465 272h254q161 0 250 123q88 122 88 307q0 187 -88 312t-250 125h-254v-867z" />
    <glyph glyph-name="E" unicode="E" horiz-adv-x="1179" 
d="M166 0v1411h893v-264h-594v-322h520v-260h-520v-301h612v-264h-911z" />
    <glyph glyph-name="F" unicode="F" horiz-adv-x="1101" 
d="M166 0v1411h883v-264h-582v-322h461v-262h-461v-563h-301z" />
    <glyph glyph-name="G" unicode="G" horiz-adv-x="1548" 
d="M84 702q0 300 209 512q213 213 514 213q159 0 297.5 -61t232.5 -170l-221 -190q-125 143 -309 143q-179 0 -301 -131q-121 -133 -121 -316q0 -185 123 -317q122 -131 299 -131q122 0 231 68q108 71 111 176h-379v243h725q0 -384 -186 -573q-185 -188 -502 -188
q-304 0 -514 210q-209 212 -209 512z" />
    <glyph glyph-name="H" unicode="H" horiz-adv-x="1435" 
d="M166 0v1411h299v-575h502v575h303v-1411h-303v567h-502v-567h-299z" />
    <glyph glyph-name="I" unicode="I" horiz-adv-x="630" 
d="M166 0v1411h299v-1411h-299z" />
    <glyph glyph-name="J" unicode="J" horiz-adv-x="632" 
d="M-203 -449l27 271q71 -23 180 -23q79 0 120.5 53t41.5 142v1417h301v-1417q0 -213 -113 -344q-115 -133 -350 -133q-65 0 -207 34z" />
    <glyph glyph-name="K" unicode="K" horiz-adv-x="1247" 
d="M166 0v1411h303v-463l334 463h352l-534 -698l661 -713h-389l-424 479v-479h-303z" />
    <glyph glyph-name="L" unicode="L" horiz-adv-x="1046" 
d="M166 0v1411h301v-1147h528v-264h-829z" />
    <glyph glyph-name="M" unicode="M" horiz-adv-x="1869" 
d="M88 0l174 1411h248l426 -909l422 909h252l172 -1411h-301l-99 846l-329 -684h-232l-332 684l-100 -846h-301z" />
    <glyph glyph-name="N" unicode="N" horiz-adv-x="1390" 
d="M166 0v1411h274l484 -844v844h301v-1411h-269l-491 854v-854h-299z" />
    <glyph glyph-name="O" unicode="O" horiz-adv-x="1599" 
d="M84 702q0 299 207 512q210 213 508 213q301 0 508 -213q209 -212 209 -512t-209 -512q-207 -210 -508 -210t-508 210q-207 213 -207 512zM383 702q0 -176 121 -303q120 -123 295 -123q176 0 295 125q123 126 123 301q0 178 -123 304q-118 124 -295 124t-295 -124
q-121 -127 -121 -304z" />
    <glyph glyph-name="P" unicode="P" horiz-adv-x="1257" 
d="M166 0v1411h579q228 0 347 -137q118 -133 118 -326q0 -192 -118 -325q-121 -136 -347 -136h-278v-487h-301zM467 750h264q79 0 128.5 59.5t49.5 138.5q0 78 -47.5 138.5t-122.5 60.5h-272v-397z" />
    <glyph glyph-name="Q" unicode="Q" horiz-adv-x="1613" 
d="M84 702q0 300 209 512q213 213 514 213q307 0 514 -210q211 -211 211 -515q0 -176 -82 -331.5t-225 -259.5l135 -226l-211 -127l-152 246q-91 -24 -190 -24q-304 0 -514 210q-209 212 -209 512zM385 702q0 -153 92 -274q94 -117 240 -147q50 -13 121 -13l-113 189
l211 125l135 -220q160 127 160 340q0 186 -125 314q-123 129 -299 129q-178 0 -301 -129q-121 -130 -121 -314z" />
    <glyph glyph-name="R" unicode="R" horiz-adv-x="1304" 
d="M166 0v1411h577q228 0 347 -137q122 -134 122 -326q0 -166 -92.5 -289t-259.5 -159l350 -500h-360l-315 487h-68v-487h-301zM467 750h254q79 0 128.5 59.5t49.5 138.5q0 78 -47.5 138.5t-122.5 60.5h-262v-397z" />
    <glyph glyph-name="S" unicode="S" horiz-adv-x="1191" 
d="M90 414h301q5 -74 61 -122t150 -48q92 0 149 41t58 108v6q0 52 -36 88q-38 38 -134 66l-170 47q-365 114 -365 406q0 184 140 303q136 118 346 118q211 0 342 -116q135 -117 135 -316h-299q0 73 -48 116.5t-134 43.5q-80 0 -131.5 -40t-51.5 -101q0 -100 152 -144
l168 -53q387 -111 387 -412v-14q-3 -134 -78 -231q-142 -183 -430 -183q-229 0 -371 121q-141 123 -141 316z" />
    <glyph glyph-name="T" unicode="T" horiz-adv-x="1179" 
d="M57 1141v270h1065v-270h-381v-1141h-303v1141h-381z" />
    <glyph glyph-name="U" unicode="U" horiz-adv-x="1396" 
d="M152 504v907h305v-907q0 -106 71 -174q74 -68 172 -68q99 0 170 68q74 71 74 174v907h301v-907q0 -234 -160 -379t-385 -145q-222 0 -387 145q-161 142 -161 379z" />
    <glyph glyph-name="V" unicode="V" horiz-adv-x="1191" 
d="M33 1411h311l252 -926l250 926h313l-430 -1411h-266z" />
    <glyph glyph-name="W" unicode="W" horiz-adv-x="1814" 
d="M-2 1411h324l274 -889l188 690h246l187 -690l276 889h326l-480 -1411h-235l-199 741l-194 -741h-238z" />
    <glyph glyph-name="X" unicode="X" horiz-adv-x="1347" 
d="M8 0l488 752l-445 659h361l262 -422l264 422h358l-444 -659l489 -752h-354l-313 512l-314 -512h-352z" />
    <glyph glyph-name="Y" unicode="Y" horiz-adv-x="1333" 
d="M-31 1411h357l340 -528l344 528h356l-547 -776v-635h-305v639z" />
    <glyph glyph-name="Z" unicode="Z" horiz-adv-x="1218" 
d="M86 0v227l645 920h-618v264h1007v-227l-651 -920h651v-264h-1034z" />
    <glyph glyph-name="bracketleft" unicode="[" horiz-adv-x="692" 
d="M150 -469v1880h473v-207h-232v-1462h232v-211h-473z" />
    <glyph glyph-name="backslash" unicode="\" horiz-adv-x="1024" 
d="M59 1411h228l678 -1411h-228z" />
    <glyph glyph-name="bracketright" unicode="]" horiz-adv-x="692" 
d="M70 -258h231v1462h-231v207h473v-1880h-473v211z" />
    <glyph glyph-name="underscore" unicode="_" horiz-adv-x="1521" 
d="M123 -66h1276v-204h-1276v204z" />
    <glyph glyph-name="grave" unicode="`" horiz-adv-x="1134" 
d="M264 1448h283l225 -344h-205z" />
    <glyph glyph-name="a" unicode="a" horiz-adv-x="1253" 
d="M74 479q0 221 147 359q148 139 340 139q77 0 155 -31.5t124 -95.5v106h282v-956h-282v109q-39 -60 -127 -95q-77 -32 -152 -32q-194 0 -340 137q-147 138 -147 360zM369 479q0 -99 71 -164q72 -63 168 -63q95 0 163.5 63.5t68.5 163.5t-68.5 164t-163.5 64
q-93 0 -168 -66q-71 -65 -71 -162z" />
    <glyph glyph-name="b" unicode="b" horiz-adv-x="1232" 
d="M131 0v1477h283v-637q35 63 111 100t169 37q190 0 326 -139q137 -137 137 -363q0 -221 -137 -358q-134 -137 -326 -137q-94 0 -169.5 37t-110.5 102v-119h-283zM420 481q0 -99 64 -165t157 -66q94 0 157.5 64.5t63.5 166.5q0 99 -64 163.5t-157 64.5q-94 0 -157.5 -63
t-63.5 -165z" />
    <glyph glyph-name="c" unicode="c" horiz-adv-x="1075" 
d="M74 481q0 219 153 357q154 139 367 139q128 0 237.5 -53.5t178.5 -149.5l-232 -166q-63 97 -184 97q-96 0 -166 -64q-72 -63 -72 -160q0 -100 72 -166q69 -63 166 -63q122 0 184 96l232 -164q-67 -97 -177 -150.5t-239 -53.5q-214 0 -367 141t-153 360z" />
    <glyph glyph-name="d" unicode="d" horiz-adv-x="1232" 
d="M76 475q0 225 135 363q139 139 328 139q93 0 169 -37t111 -100v637h283v-1477h-283v119q-35 -65 -110.5 -102t-169.5 -37q-191 0 -328 137q-135 138 -135 358zM371 481q0 -102 63.5 -166.5t157.5 -64.5q93 0 157 66t64 165q0 102 -63.5 165t-157.5 63q-93 0 -157 -64.5
t-64 -163.5z" />
    <glyph glyph-name="e" unicode="e" horiz-adv-x="1126" 
d="M74 481q0 222 143 359t356 137q211 0 349 -141q141 -138 141 -363q0 -22 -4 -88h-701q10 -75 78 -117.5t158 -42.5q137 0 209 90l207 -141q-132 -194 -437 -194q-211 0 -356 139q-143 140 -143 362zM362 563h414q-7 52 -37.5 90t-72.5 55.5t-91 17.5t-92 -17t-76.5 -55
t-44.5 -91z" />
    <glyph glyph-name="f" unicode="f" horiz-adv-x="751" 
d="M47 731v225h180v66q0 219 112.5 337t319.5 118h105v-273h-105q-145 0 -145 -182v-66h193v-225h-193v-731h-287v731h-180z" />
    <glyph glyph-name="g" unicode="g" horiz-adv-x="1245" 
d="M74 475q0 223 141 361q144 141 336 141q93 0 172.5 -38t114.5 -101v118h276v-823q0 -300 -139.5 -455t-401.5 -155q-157 0 -283 80.5t-188 216.5l230 112q24 -65 95 -109t146 -44q266 0 266 295q0 22 -1 45q-32 -62 -112.5 -100.5t-174.5 -38.5q-191 0 -336 139
q-141 138 -141 356zM371 481q0 -102 66.5 -167.5t162.5 -65.5q91 0 162 65q69 66 69 168q0 100 -67.5 163t-163.5 63q-95 0 -162 -64.5t-67 -161.5z" />
    <glyph glyph-name="h" unicode="h" horiz-adv-x="1185" 
d="M131 0v1477h285v-670q27 82 108 125q80 45 160 45q186 0 284.5 -118.5t98.5 -338.5v-520h-285v510q0 85 -52 137.5t-124 52.5q-83 0 -136.5 -49.5t-53.5 -144.5v-506h-285z" />
    <glyph glyph-name="i" unicode="i" horiz-adv-x="544" 
d="M94 1311q0 69 52 117.5t126 48.5q72 0 123 -48.5t51 -117.5t-51 -118.5t-123 -49.5q-73 0 -125.5 49.5t-52.5 118.5zM131 0v956h283v-956h-283z" />
    <glyph glyph-name="j" unicode="j" horiz-adv-x="548" 
d="M-119 -223h125q125 0 125 144v7v1028h287v-1022q0 -207 -86.5 -311t-276.5 -104h-174v258zM96 1311q0 69 51 116q54 49 127.5 49t124.5 -49q51 -47 51 -116t-51 -119t-124.5 -50t-127.5 50q-51 50 -51 119z" />
    <glyph glyph-name="k" unicode="k" horiz-adv-x="1077" 
d="M131 0v1477h283v-783l227 262h363l-398 -421l477 -535h-350l-319 379v-379h-283z" />
    <glyph glyph-name="l" unicode="l" horiz-adv-x="546" 
d="M131 0v1477h285v-1477h-285z" />
    <glyph glyph-name="m" unicode="m" horiz-adv-x="1748" 
d="M131 0v956h285v-139q32 73 100.5 115.5t149.5 42.5q228 0 307 -168q105 170 287 170q175 0 271.5 -111.5t96.5 -322.5v-543h-282v510q0 89 -44.5 139.5t-113.5 50.5q-76 0 -120 -49t-44 -145v-506h-285v516q-1 85 -45.5 134.5t-111.5 49.5q-76 0 -121 -48t-45 -146v-506
h-285z" />
    <glyph glyph-name="n" unicode="n" horiz-adv-x="1163" 
d="M131 0v956h285v-139q38 72 114.5 116t161.5 44q168 0 259 -103.5t91 -302.5v-571h-284v510q0 91 -45 140.5t-121 49.5q-176 0 -176 -194v-506h-285z" />
    <glyph glyph-name="o" unicode="o" horiz-adv-x="1140" 
d="M74 481q0 222 143 359t352 137q210 0 353 -137q145 -139 145 -359q0 -221 -145 -360q-143 -137 -353 -137q-209 0 -352 137t-143 360zM354 481q0 -97 61.5 -158t153.5 -61q93 0 155 61t62 158q0 93 -63 155t-154 62t-153 -62t-62 -155z" />
    <glyph glyph-name="p" unicode="p" horiz-adv-x="1232" 
d="M131 -469v1425h283v-118q35 65 110.5 102t169.5 37q190 0 326 -139q137 -137 137 -357q0 -225 -137 -362q-136 -139 -326 -139q-93 0 -169 37t-111 100v-586h-283zM420 475q0 -102 63.5 -164.5t157.5 -62.5q93 0 157 64t64 163q0 101 -63.5 166.5t-157.5 65.5
q-93 0 -157 -66.5t-64 -165.5z" />
    <glyph glyph-name="q" unicode="q" horiz-adv-x="1232" 
d="M76 481q0 219 135 357q139 139 326 139q94 0 171 -37t109 -102v118h285v-1425h-285v586q-32 -63 -109 -100t-171 -37q-190 0 -326 139q-135 138 -135 362zM371 475q0 -99 63 -163t156 -64q94 0 157.5 62.5t63.5 164.5q0 99 -64 165.5t-157 66.5t-156 -65t-63 -167z" />
    <glyph glyph-name="r" unicode="r" horiz-adv-x="866" 
d="M131 0v956h285v-231q34 120 109 186t161 66q92 0 164 -35l-51 -256q-63 29 -146 29q-237 0 -237 -381v-334h-285z" />
    <glyph glyph-name="s" unicode="s" horiz-adv-x="956" 
d="M74 309h266q2 -43 43.5 -76.5t97.5 -33.5q51 2 84 23.5t33 56.5q0 31 -21.5 49t-72.5 32l-125 33q-201 53 -254 154q-23 47 -29 79q-5 24 -4 58v21q3 106 113 188q113 84 260 84q160 0 276 -78q114 -77 117 -240h-268q-3 84 -109 84q-47 0 -74.5 -19.5t-25.5 -51.5
q3 -51 84 -72l162 -43q102 -26 168 -88q57 -55 74.5 -97t17.5 -93q0 -146 -125 -222q-124 -77 -289 -77q-159 0 -278 88q-118 87 -121 241z" />
    <glyph glyph-name="t" unicode="t" horiz-adv-x="747" 
d="M47 731v225h174v367h283v-367h201v-225h-201v-731h-283v731h-174z" />
    <glyph glyph-name="u" unicode="u" horiz-adv-x="1163" 
d="M121 385v571h285v-510q0 -96 49.5 -143t119.5 -47q77 0 125 49.5t48 145.5v505h284v-956h-284v131q-36 -68 -105.5 -109.5t-142.5 -41.5q-171 0 -275 106.5t-104 298.5z" />
    <glyph glyph-name="v" unicode="v" horiz-adv-x="1064" 
d="M6 956h303l223 -594l222 594h305l-406 -956h-243z" />
    <glyph glyph-name="w" unicode="w" horiz-adv-x="1562" 
d="M16 956h303l170 -569l168 569h244l168 -569l170 569h303l-336 -956h-237l-189 608l-180 -608h-238z" />
    <glyph glyph-name="x" unicode="x" horiz-adv-x="1085" 
d="M8 0l377 518l-315 438h331l144 -211l141 211h330l-316 -438l375 -518h-330l-202 293l-205 -293h-330z" />
    <glyph glyph-name="y" unicode="y" horiz-adv-x="1044" 
d="M6 956h303l211 -542l213 542h303l-590 -1425h-301l230 567z" />
    <glyph glyph-name="z" unicode="z" horiz-adv-x="1044" 
d="M84 0v211l451 483h-422v262h833v-213l-459 -481h459v-262h-862z" />
    <glyph glyph-name="braceleft" unicode="{" horiz-adv-x="843" 
d="M63 385v172q51 0 88 33.5t37 85.5v325q-3 181 117 295q121 115 297 115h174v-207h-180q-69 0 -118.5 -51.5t-49.5 -124.5v-336q0 -81 -48.5 -141.5t-113.5 -79.5q65 -19 113.5 -79.5t48.5 -141.5v-313q0 -75 50.5 -133t117.5 -58h180v-215h-174q-176 0 -297 115
q-120 114 -117 295v325q0 52 -37 85.5t-88 33.5z" />
    <glyph glyph-name="bar" unicode="|" horiz-adv-x="448" 
d="M150 -254v1896h149v-1896h-149z" />
    <glyph glyph-name="braceright" unicode="}" horiz-adv-x="843" 
d="M68 -254h180q67 0 117.5 58t50.5 133v313q0 81 48.5 141.5t113.5 79.5q-65 19 -113.5 79.5t-48.5 141.5v336q0 73 -49.5 124.5t-118.5 51.5h-180v207h174q174 0 295 -115t118 -295v-325q0 -52 37 -85.5t88 -33.5v-172q-51 0 -88 -33.5t-37 -85.5v-325q3 -180 -118 -295
t-295 -115h-174v215z" />
    <glyph glyph-name="uni00A0" unicode="&#xa0;" horiz-adv-x="499" 
 />
    <glyph glyph-name="exclamdown" unicode="&#xa1;" horiz-adv-x="546" 
d="M96 805q0 73 51 122.5t125 49.5t126.5 -49.5t52.5 -122.5q0 -71 -52.5 -120.5t-126.5 -49.5t-125 48.5t-51 121.5zM117 -469l41 999h233l41 -999h-315z" />
    <glyph glyph-name="cent" unicode="&#xa2;" horiz-adv-x="1101" 
d="M80 481q0 191 121 324q117 129 303 164v221h149v-215q236 -21 363 -201l-232 -166q-63 97 -184 97q-96 0 -166 -64q-72 -63 -72 -160q0 -100 72 -166q69 -63 166 -63q122 0 184 96l232 -164q-126 -181 -363 -202v-236h-149v242q-184 35 -303 166q-121 133 -121 327z" />
    <glyph glyph-name="sterling" unicode="&#xa3;" horiz-adv-x="1392" 
d="M84 0v254h217v317h-170v129h170v269q0 204 121 331q124 127 315 127q202 0 334 -120q131 -119 131 -351h-297q0 168 -162 168q-72 0 -113.5 -41.5t-41.5 -113.5v-269h235v-129h-235v-317h377q26 0 43.5 21.5t17.5 52.5v59h281v-115q0 -118 -76 -194q-75 -78 -182 -78
h-965z" />
    <glyph glyph-name="currency" unicode="&#xa4;" horiz-adv-x="1271" 
d="M129 330l145 147q-59 95 -59 217q0 121 61 219l-147 148l141 141l148 -147q101 61 217 61q121 0 219 -61l145 147l142 -141l-148 -150q64 -107 64 -217q0 -122 -62 -217l146 -147l-142 -142l-145 148q-98 -62 -219 -62t-219 62l-146 -148zM465 694q0 -71 50 -120.5
t120 -49.5q72 0 122 49t50 121t-50 122t-122 50t-121 -50t-49 -122z" />
    <glyph glyph-name="yen" unicode="&#xa5;" horiz-adv-x="1519" 
d="M61 1411h357l340 -528l344 528h356l-526 -747h299v-140h-320v-190h320v-139h-320v-195h-305v195h-317v139h317v190h-317v140h299z" />
    <glyph glyph-name="brokenbar" unicode="&#xa6;" horiz-adv-x="452" 
d="M152 -254v786h149v-786h-149zM152 860v782h149v-782h-149z" />
    <glyph glyph-name="section" unicode="&#xa7;" horiz-adv-x="1107" 
d="M121 -4l239 72q22 -78 74 -118t117 -40q76 0 129 50t53 128v361q0 78 -52.5 127t-129.5 49h-12q-47 0 -90 -9v250q57 13 102 13q184 0 309 -119q127 -121 127 -311v-361q0 -190 -127 -311q-125 -119 -309 -119q-153 0 -275 88q-120 83 -155 250zM121 635v360
q0 191 127 312q124 118 309 118q152 0 274 -88q121 -84 156 -250l-239 -71q-22 78 -74 118t-117 40q-76 0 -129 -50.5t-53 -128.5v-360q0 -78 52.5 -127t129.5 -49h12q51 0 90 8v-250q-53 -12 -102 -12q-184 0 -309 119q-127 121 -127 311z" />
    <glyph glyph-name="dieresis" unicode="&#xa8;" horiz-adv-x="1148" 
d="M246 1307q0 57 44 98t105 41q60 0 103 -41t43 -98q0 -60 -43 -101t-103 -41q-62 0 -105.5 41t-43.5 101zM608 1307q0 57 44 98t106 41q60 0 102.5 -41t42.5 -98q0 -60 -42.5 -101t-102.5 -41q-62 0 -106 41t-44 101z" />
    <glyph glyph-name="copyright" unicode="&#xa9;" horiz-adv-x="1632" 
d="M100 702q0 299 207 512q210 213 508 213t508 -213q209 -212 209 -512t-209 -512q-207 -210 -508 -210t-508 210q-207 213 -207 512zM260 702q0 -235 162 -397q164 -164 393 -164t393 164q162 162 162 397q0 236 -162 398q-163 166 -393 166t-393 -166
q-162 -162 -162 -398zM459 696q0 151 102 256q101 107 252 107q192 0 299 -162l-135 -94q-70 94 -164 94q-79 0 -130.5 -57t-51.5 -144q0 -83 51.5 -139.5t130.5 -56.5q96 0 166 94l137 -92q-50 -76 -131.5 -122t-171.5 -46q-152 0 -252 106q-102 108 -102 256z" />
    <glyph glyph-name="ordfeminine" unicode="&#xaa;" horiz-adv-x="958" 
d="M94 1001q0 158 101 256q102 99 243 99q134 0 211 -103v88h156v-679h-156v92q-35 -49 -92.5 -78t-118.5 -29q-142 0 -243 98t-101 256zM158 434v109h645v-109h-645zM254 1004q0 -87 56 -144t139 -57q86 0 143 55t57 146q0 88 -59 142t-141 54q-85 0 -140 -54.5t-55 -141.5
z" />
    <glyph glyph-name="guillemotleft" unicode="&#xab;" horiz-adv-x="1034" 
d="M80 477l282 424h222l-283 -424l283 -424h-222zM442 477l283 424h221l-282 -424l282 -424h-221z" />
    <glyph glyph-name="logicalnot" unicode="&#xac;" horiz-adv-x="1286" 
d="M139 518v246h996v-551h-248v305h-748z" />
    <glyph glyph-name="uni00AD" unicode="&#xad;" horiz-adv-x="972" 
d="M125 391v225h723v-225h-723z" />
    <glyph glyph-name="registered" unicode="&#xae;" horiz-adv-x="1632" 
d="M100 702q0 299 207 512q210 213 508 213t508 -213q209 -212 209 -512t-209 -512q-207 -210 -508 -210t-508 210q-207 213 -207 512zM260 702q0 -235 162 -397q164 -164 393 -164t393 164q162 162 162 397q0 236 -162 398q-163 166 -393 166t-393 -166
q-162 -162 -162 -398zM565 356v695h291q112 0 176 -66.5t64 -167.5q0 -80 -43 -142t-117 -87l172 -232h-207l-149 224h-15v-224h-172zM737 731h109q31 0 52.5 26.5t21.5 59.5q0 28 -20 54t-48 26h-115v-166z" />
    <glyph glyph-name="macron" unicode="&#xaf;" horiz-adv-x="1060" 
d="M246 1202v174h569v-174h-569z" />
    <glyph glyph-name="degree" unicode="&#xb0;" horiz-adv-x="770" 
d="M90 1083q0 121 86 207q85 88 207 88q124 0 209 -88q88 -85 88 -207q0 -123 -88 -211q-86 -86 -209 -86q-121 0 -207 86q-86 89 -86 211zM238 1083q0 -63 42.5 -106t102.5 -43q63 0 106 43t43 106q0 62 -43 105t-106 43q-60 0 -102.5 -43.5t-42.5 -104.5z" />
    <glyph glyph-name="plusminus" unicode="&#xb1;" horiz-adv-x="1120" 
d="M139 -2v209h842v-209h-842zM139 598v209h316v289h209v-289h317v-209h-317v-293h-209v293h-316z" />
    <glyph glyph-name="uni00B2" unicode="&#xb2;" horiz-adv-x="649" 
d="M59 889v88l320 379q41 47 41 90q0 33 -27.5 55.5t-70.5 22.5t-74 -30t-37 -79l-152 27q19 111 91 175t182 64q105 0 178 -67q76 -64 76 -168q0 -106 -82 -197l-180 -205h241v-155h-506z" />
    <glyph glyph-name="uni00B3" unicode="&#xb3;" horiz-adv-x="649" 
d="M33 1042l143 72q39 -67 117 -76q42 -1 75 24t38 58q0 42 -7 60q-21 50 -100 47h-82v141h82q78 0 78 86q0 28 -22.5 52t-57.5 24q-55 0 -84 -45l-131 82q36 56 100.5 87t141.5 27q100 -6 166.5 -69t62.5 -148q0 -99 -100 -153q62 -23 100.5 -85t32.5 -126
q-9 -100 -99 -166q-88 -64 -206 -55q-80 6 -148 51t-100 112z" />
    <glyph glyph-name="acute" unicode="&#xb4;" horiz-adv-x="1134" 
d="M264 1104l225 344h283l-303 -344h-205z" />
    <glyph glyph-name="uni00B5" unicode="&#xb5;" horiz-adv-x="1175" 
d="M147 -391v1347h285v-510q0 -96 49.5 -143t120.5 -47q77 0 124.5 49.5t47.5 145.5v505h285v-956h-285v131q-36 -68 -105.5 -109.5t-142.5 -41.5q-83 0 -147 55l29 -271v-155h-261z" />
    <glyph glyph-name="paragraph" unicode="&#xb6;" horiz-adv-x="1460" 
d="M68 967q0 184 129 313q128 131 315 131h190v-1440q0 -49 -49 -49h-161v600q-174 9 -302 140q-122 128 -122 305zM489 -195h248q40 0 66 28t26 67v1511h279q115 0 199 -84q82 -82 82 -197v-174h-191v156q0 40 -27.5 66t-66.5 26h-70v-1304q0 -107 -86 -193
q-85 -88 -194 -88h-265v186z" />
    <glyph glyph-name="periodcentered" unicode="&#xb7;" horiz-adv-x="575" 
d="M111 711q0 73 51 121.5t125 48.5t126 -49t52 -121q0 -73 -52 -122.5t-126 -49.5t-125 49.5t-51 122.5z" />
    <glyph glyph-name="cedilla" unicode="&#xb8;" horiz-adv-x="1087" 
d="M332 -193l157 -8q-3 -26 3 -53q21 -54 79 -39q55 24 31 86l-96 262h133l102 -190q21 -34 21 -101q0 -84 -66 -147q-63 -63 -153 -63q-62 0 -115.5 36t-79.5 97q-19 46 -16 120z" />
    <glyph glyph-name="uni00B9" unicode="&#xb9;" horiz-adv-x="440" 
d="M43 1393v143l297 141v-788h-164v559z" />
    <glyph glyph-name="ordmasculine" unicode="&#xba;" horiz-adv-x="929" 
d="M102 1006q0 156 103 251q102 99 252 99t252 -99q104 -94 104 -251q0 -160 -104 -261q-101 -98 -252 -98q-148 0 -252 98q-103 103 -103 261zM147 434v109h646v-109h-646zM258 1006q0 -90 56.5 -146.5t142.5 -56.5t142 56.5t56 146.5q0 86 -56 140t-142 54t-142.5 -54.5
t-56.5 -139.5z" />
    <glyph glyph-name="guillemotright" unicode="&#xbb;" horiz-adv-x="1034" 
d="M88 53l283 424l-283 424h221l283 -424l-283 -424h-221zM451 53l282 424l-282 424h221l282 -424l-282 -424h-221z" />
    <glyph glyph-name="onequarter" unicode="&#xbc;" horiz-adv-x="1603" 
d="M80 1067v143l297 142v-789h-164v559zM190 -20l926 1388h168l-924 -1388h-170zM891 174l366 604h173v-465h98v-139h-98v-174h-166v174h-373zM1116 313h148v244z" />
    <glyph glyph-name="onehalf" unicode="&#xbd;" horiz-adv-x="1619" 
d="M80 1067v143l297 142v-789h-164v559zM178 -20l926 1388h168l-924 -1388h-170zM1010 0v88l319 379q41 47 41 90q0 33 -27.5 55.5t-70.5 22.5t-74 -30t-37 -79l-151 27q19 111 91 175.5t181 64.5q104 0 178 -68q76 -64 76 -168q0 -106 -82 -197l-180 -204h242v-156h-506z
" />
    <glyph glyph-name="threequarters" unicode="&#xbe;" horiz-adv-x="1699" 
d="M74 717l143 71q38 -66 117 -75q42 -1 74.5 24t37.5 58q0 44 -6 59q-21 50 -100 47h-82v141h82q78 0 78 86q0 28 -22.5 52t-57.5 24q-55 0 -84 -45l-131 82q36 56 100.5 87.5t141.5 27.5q100 -6 166.5 -69t62.5 -148q0 -100 -100 -154q62 -23 100.5 -85t32.5 -126
q-9 -100 -99 -166q-88 -64 -206 -55q-79 6 -147.5 51t-100.5 113zM322 -20l925 1388h168l-923 -1388h-170zM985 174l367 604h172v-465h98v-139h-98v-174h-166v174h-373zM1210 313h148v244z" />
    <glyph glyph-name="questiondown" unicode="&#xbf;" horiz-adv-x="997" 
d="M66 -72q0 144 74.5 246t199.5 141q61 18 83.5 56t22.5 114l5 45h278l4 -45q0 -93 -2 -120q-3 -44 -14 -91q-14 -68 -56.5 -106t-150.5 -94l-82 -35q-47 -25 -61.5 -48.5t-14.5 -64.5q0 -47 41.5 -78.5t104.5 -31.5q66 0 105.5 39t39.5 102h287q0 -195 -119 -311
q-120 -117 -313 -117t-314 109q-118 106 -118 290zM408 805q0 73 52 122.5t126 49.5t125 -49.5t51 -122.5t-51 -121.5t-125 -48.5t-126 49t-52 121z" />
    <glyph glyph-name="Agrave" unicode="&#xc0;" 
d="M-12 0l524 1411h326l522 -1411h-316l-124 334h-488l-125 -334h-319zM317 1903h283l225 -344h-204zM530 594h293l-149 491z" />
    <glyph glyph-name="Aacute" unicode="&#xc1;" 
d="M-12 0l524 1411h326l522 -1411h-316l-124 334h-488l-125 -334h-319zM530 594h293l-149 491zM535 1559l225 344h282l-303 -344h-204z" />
    <glyph glyph-name="Acircumflex" unicode="&#xc2;" 
d="M-12 0l524 1411h326l522 -1411h-316l-124 334h-488l-125 -334h-319zM307 1567l223 344h283l225 -344h-204l-162 182l-160 -182h-205zM530 594h293l-149 491z" />
    <glyph glyph-name="Atilde" unicode="&#xc3;" 
d="M-12 0l524 1411h326l522 -1411h-316l-124 334h-488l-125 -334h-319zM377 1608q6 129 66 197.5t141 68.5q47 0 102 -43q56 -41 76 -41q19 0 35.5 22t17.5 62h154q-6 -127 -65.5 -194.5t-141.5 -67.5q-44 0 -103 41q-58 43 -75 43q-19 0 -36 -24t-18 -64h-153zM530 594h293
l-149 491z" />
    <glyph glyph-name="Adieresis" unicode="&#xc4;" 
d="M-12 0l524 1411h326l522 -1411h-316l-124 334h-488l-125 -334h-319zM319 1761q0 57 44.5 98.5t105.5 41.5q60 0 102.5 -41.5t42.5 -98.5q0 -60 -42.5 -100.5t-102.5 -40.5q-62 0 -106 41t-44 100zM530 594h293l-149 491zM682 1761q0 57 44 98.5t105 41.5q60 0 103 -41.5
t43 -98.5q0 -60 -43 -100.5t-103 -40.5q-62 0 -105.5 40.5t-43.5 100.5z" />
    <glyph glyph-name="Aring" unicode="&#xc5;" 
d="M-12 0l524 1411h326l522 -1411h-316l-124 334h-488l-125 -334h-319zM426 1804q0 106 72 178q71 74 174 74q105 0 176 -74q74 -71 74 -178q0 -103 -74 -174q-71 -71 -176 -71q-103 0 -174 71q-72 72 -72 174zM530 594h293l-149 491zM559 1804q0 -47 33 -79.5t80 -32.5
q49 0 82.5 32.5t33.5 79.5q0 51 -33 85t-83 34q-48 0 -80.5 -34t-32.5 -85z" />
    <glyph glyph-name="AE" unicode="&#xc6;" horiz-adv-x="1912" 
d="M-43 0l891 1411h944v-264h-594v-322h520v-260h-520v-301h612v-264h-911v2l-2 -2v324h-377l-205 -324h-358zM690 612h207v398z" />
    <glyph glyph-name="Ccedilla" unicode="&#xc7;" horiz-adv-x="1435" 
d="M86 702q0 303 203 515q204 210 506 210q182 0 337 -80.5t250 -218.5l-243 -167q-126 184 -344 184q-174 0 -291 -129q-117 -126 -117 -314q0 -184 117 -313q118 -127 291 -127q106 0 198 52.5t154 142.5l242 -168q-87 -131 -224 -211.5t-301 -93.5l64 -119
q20 -39 20 -101q0 -85 -65 -147q-63 -63 -154 -63q-62 0 -115 36t-79 97q-20 48 -17 120l158 -8q-3 -29 2 -53q22 -54 80 -39q54 24 30 86l-69 191q-275 27 -455 231q-178 205 -178 487z" />
    <glyph glyph-name="Egrave" unicode="&#xc8;" horiz-adv-x="1179" 
d="M166 0v1411h893v-264h-594v-322h520v-260h-520v-301h612v-264h-911zM274 1903h283l225 -344h-204z" />
    <glyph glyph-name="Eacute" unicode="&#xc9;" horiz-adv-x="1179" 
d="M166 0v1411h893v-264h-594v-322h520v-260h-520v-301h612v-264h-911zM436 1559l226 344h282l-303 -344h-205z" />
    <glyph glyph-name="Ecircumflex" unicode="&#xca;" horiz-adv-x="1179" 
d="M166 0v1411h893v-264h-594v-322h520v-260h-520v-301h612v-264h-911zM215 1567l223 344h283l225 -344h-205l-161 182l-160 -182h-205z" />
    <glyph glyph-name="Edieresis" unicode="&#xcb;" horiz-adv-x="1179" 
d="M166 0v1411h893v-264h-594v-322h520v-260h-520v-301h612v-264h-911zM252 1761q0 57 44 98.5t105 41.5q60 0 103 -41.5t43 -98.5q0 -60 -43 -100.5t-103 -40.5q-62 0 -105.5 40.5t-43.5 100.5zM614 1761q0 57 44.5 98.5t105.5 41.5q60 0 102.5 -41.5t42.5 -98.5
q0 -60 -42.5 -100.5t-102.5 -40.5q-62 0 -106 41t-44 100z" />
    <glyph glyph-name="Igrave" unicode="&#xcc;" horiz-adv-x="630" 
d="M-45 1903h283l225 -344h-205zM166 0v1411h299v-1411h-299z" />
    <glyph glyph-name="Iacute" unicode="&#xcd;" horiz-adv-x="630" 
d="M164 1559l225 344h283l-303 -344h-205zM166 0v1411h299v-1411h-299z" />
    <glyph glyph-name="Icircumflex" unicode="&#xce;" horiz-adv-x="630" 
d="M-49 1567l223 344h283l225 -344h-205l-162 182l-159 -182h-205zM166 0v1411h299v-1411h-299z" />
    <glyph glyph-name="Idieresis" unicode="&#xcf;" horiz-adv-x="630" 
d="M-12 1761q0 57 44 98.5t105 41.5q60 0 103 -41.5t43 -98.5q0 -60 -43 -100.5t-103 -40.5q-62 0 -105.5 40.5t-43.5 100.5zM166 0v1411h299v-1411h-299zM350 1761q0 57 44.5 98.5t105.5 41.5q60 0 102.5 -41.5t42.5 -98.5q0 -60 -42.5 -100.5t-102.5 -40.5q-62 0 -106 41
t-44 100z" />
    <glyph glyph-name="Eth" unicode="&#xd0;" horiz-adv-x="1478" 
d="M4 582v200h193v629h553q296 0 467 -201q169 -199 169 -508t-169 -505q-170 -197 -467 -197h-553v582h-193zM496 272h254q160 0 249 123q88 122 88 307q0 187 -88 312t-249 125h-254v-357h252v-200h-252v-310z" />
    <glyph glyph-name="Ntilde" unicode="&#xd1;" horiz-adv-x="1390" 
d="M166 0v1411h274l484 -844v844h301v-1411h-269l-491 854v-854h-299zM399 1608q6 129 66 197.5t141 68.5q48 0 103 -43q56 -41 75 -41t36 22t18 62h153q-6 -127 -65.5 -194.5t-141.5 -67.5q-41 0 -100 41q-58 43 -78 43q-19 0 -35.5 -24t-17.5 -64h-154z" />
    <glyph glyph-name="Ograve" unicode="&#xd2;" horiz-adv-x="1599" 
d="M84 702q0 299 207 512q210 213 508 213q301 0 508 -213q209 -212 209 -512t-209 -512q-207 -210 -508 -210t-508 210q-207 213 -207 512zM383 702q0 -176 121 -303q120 -123 295 -123q176 0 295 125q123 126 123 301q0 178 -123 304q-118 124 -295 124t-295 -124
q-121 -127 -121 -304zM436 1903h283l225 -344h-205z" />
    <glyph glyph-name="Oacute" unicode="&#xd3;" horiz-adv-x="1599" 
d="M84 702q0 299 207 512q210 213 508 213q301 0 508 -213q209 -212 209 -512t-209 -512q-207 -210 -508 -210t-508 210q-207 213 -207 512zM383 702q0 -176 121 -303q120 -123 295 -123q176 0 295 125q123 126 123 301q0 178 -123 304q-118 124 -295 124t-295 -124
q-121 -127 -121 -304zM666 1559l225 344h283l-304 -344h-204z" />
    <glyph glyph-name="Ocircumflex" unicode="&#xd4;" horiz-adv-x="1599" 
d="M84 702q0 299 207 512q210 213 508 213q301 0 508 -213q209 -212 209 -512t-209 -512q-207 -210 -508 -210t-508 210q-207 213 -207 512zM383 702q0 -176 121 -303q120 -123 295 -123q176 0 295 125q123 126 123 301q0 178 -123 304q-118 124 -295 124t-295 -124
q-121 -127 -121 -304zM434 1567l223 344h283l225 -344h-204l-162 182l-160 -182h-205z" />
    <glyph glyph-name="Otilde" unicode="&#xd5;" horiz-adv-x="1599" 
d="M84 702q0 299 207 512q210 213 508 213q301 0 508 -213q209 -212 209 -512t-209 -512q-207 -210 -508 -210t-508 210q-207 213 -207 512zM383 702q0 -176 121 -303q120 -123 295 -123q176 0 295 125q123 126 123 301q0 178 -123 304q-118 124 -295 124t-295 -124
q-121 -127 -121 -304zM504 1608q6 129 66 197.5t141 68.5q47 0 102 -43q56 -41 76 -41q19 0 35.5 22t17.5 62h154q-6 -127 -65.5 -194.5t-141.5 -67.5q-44 0 -103 41q-58 43 -75 43q-19 0 -36 -24t-18 -64h-153z" />
    <glyph glyph-name="Odieresis" unicode="&#xd6;" horiz-adv-x="1599" 
d="M84 702q0 299 207 512q210 213 508 213q301 0 508 -213q209 -212 209 -512t-209 -512q-207 -210 -508 -210t-508 210q-207 213 -207 512zM383 702q0 -176 121 -303q120 -123 295 -123q176 0 295 125q123 126 123 301q0 178 -123 304q-118 124 -295 124t-295 -124
q-121 -127 -121 -304zM471 1761q0 57 44.5 98.5t105.5 41.5q60 0 102.5 -41.5t42.5 -98.5q0 -60 -42.5 -100.5t-102.5 -40.5q-62 0 -106 41t-44 100zM834 1761q0 57 44 98.5t105 41.5q60 0 102.5 -41.5t42.5 -98.5q0 -60 -42.5 -100.5t-102.5 -40.5q-62 0 -105.5 40.5
t-43.5 100.5z" />
    <glyph glyph-name="multiply" unicode="&#xd7;" horiz-adv-x="1005" 
d="M115 768l147 147l238 -237l239 240l148 -148l-240 -240l240 -237l-148 -150l-239 240l-236 -233l-147 147l235 233z" />
    <glyph glyph-name="Oslash" unicode="&#xd8;" horiz-adv-x="1595" 
d="M82 702q0 299 207 512q210 213 508 213q264 0 456 -165l162 165l96 -94l-163 -168q165 -201 165 -463q0 -301 -208 -512q-207 -210 -508 -210q-252 0 -447 157l-2 -2l-164 -168l-96 96l164 168q-170 203 -170 471zM381 702q0 -141 80 -256l583 601q-109 83 -247 83
q-177 0 -295 -124q-121 -127 -121 -304zM557 352q104 -76 240 -76q176 0 295 125q122 125 122 301q0 134 -77 246z" />
    <glyph glyph-name="Ugrave" unicode="&#xd9;" horiz-adv-x="1396" 
d="M152 504v907h305v-907q0 -106 71 -174q74 -68 172 -68q99 0 170 68q74 71 74 174v907h301v-907q0 -234 -160 -379t-385 -145q-222 0 -387 145q-161 142 -161 379zM352 1903h283l225 -344h-205z" />
    <glyph glyph-name="Uacute" unicode="&#xda;" horiz-adv-x="1396" 
d="M152 504v907h305v-907q0 -106 71 -174q74 -68 172 -68q99 0 170 68q74 71 74 174v907h301v-907q0 -234 -160 -379t-385 -145q-222 0 -387 145q-161 142 -161 379zM535 1559l225 344h282l-303 -344h-204z" />
    <glyph glyph-name="Ucircumflex" unicode="&#xdb;" horiz-adv-x="1396" 
d="M152 504v907h305v-907q0 -106 71 -174q74 -68 172 -68q99 0 170 68q74 71 74 174v907h301v-907q0 -234 -160 -379t-385 -145q-222 0 -387 145q-161 142 -161 379zM332 1567l223 344h283l225 -344h-205l-162 182l-159 -182h-205z" />
    <glyph glyph-name="Udieresis" unicode="&#xdc;" horiz-adv-x="1396" 
d="M152 504v907h305v-907q0 -106 71 -174q74 -68 172 -68q99 0 170 68q74 71 74 174v907h301v-907q0 -234 -160 -379t-385 -145q-222 0 -387 145q-161 142 -161 379zM369 1761q0 57 44 98.5t105 41.5q60 0 103 -41.5t43 -98.5q0 -60 -43 -100.5t-103 -40.5
q-62 0 -105.5 40.5t-43.5 100.5zM731 1761q0 57 44.5 98.5t105.5 41.5q60 0 102.5 -41.5t42.5 -98.5q0 -60 -42.5 -100.5t-102.5 -40.5q-62 0 -106 41t-44 100z" />
    <glyph glyph-name="Yacute" unicode="&#xdd;" horiz-adv-x="1333" 
d="M-31 1411h357l340 -528l344 528h356l-547 -776v-635h-305v639zM512 1559l225 344h283l-303 -344h-205z" />
    <glyph glyph-name="Thorn" unicode="&#xde;" horiz-adv-x="1171" 
d="M166 0v1411h299v-229h199q192 0 325 -127q131 -125 131 -332q0 -208 -131 -336q-132 -129 -325 -129h-199v-258h-299zM465 512h184q71 0 122.5 56.5t51.5 146.5q0 94 -51.5 153.5t-122.5 59.5h-184v-416z" />
    <glyph glyph-name="germandbls" unicode="&#xdf;" horiz-adv-x="1159" 
d="M131 0v1004q0 196 115 311q115 112 299 112q190 0 309 -98t119 -242q0 -170 -129 -253q112 -56 175.5 -155.5t63.5 -232.5q0 -205 -118 -335q-116 -131 -340 -131q-72 0 -152 22l55 268q44 -8 97 -8q84 0 137 60.5t53 144.5q0 73 -49 137q-48 66 -156 66h-55v248h35
q50 0 78 34.5t28 91.5q0 56 -39 88.5t-106 32.5q-57 0 -97 -39t-40 -100v-1026h-283z" />
    <glyph glyph-name="agrave" unicode="&#xe0;" horiz-adv-x="1253" 
d="M74 479q0 221 147 359q148 139 340 139q77 0 155 -31.5t124 -95.5v106h282v-956h-282v109q-39 -60 -127 -95q-77 -32 -152 -32q-194 0 -340 137q-147 138 -147 360zM276 1448h283l225 -344h-204zM369 479q0 -99 71 -164q72 -63 168 -63q95 0 163.5 63.5t68.5 163.5
t-68.5 164t-163.5 64q-93 0 -168 -66q-71 -65 -71 -162z" />
    <glyph glyph-name="aacute" unicode="&#xe1;" horiz-adv-x="1253" 
d="M74 479q0 221 147 359q148 139 340 139q77 0 155 -31.5t124 -95.5v106h282v-956h-282v109q-39 -60 -127 -95q-77 -32 -152 -32q-194 0 -340 137q-147 138 -147 360zM369 479q0 -99 71 -164q72 -63 168 -63q95 0 163.5 63.5t68.5 163.5t-68.5 164t-163.5 64
q-93 0 -168 -66q-71 -65 -71 -162zM432 1104l225 344h283l-303 -344h-205z" />
    <glyph glyph-name="acircumflex" unicode="&#xe2;" horiz-adv-x="1253" 
d="M74 479q0 221 147 359q148 139 340 139q77 0 155 -31.5t124 -95.5v106h282v-956h-282v109q-39 -60 -127 -95q-77 -32 -152 -32q-194 0 -340 137q-147 138 -147 360zM262 1112l223 344h283l225 -344h-205l-161 182l-160 -182h-205zM369 479q0 -99 71 -164q72 -63 168 -63
q95 0 163.5 63.5t68.5 163.5t-68.5 164t-163.5 64q-93 0 -168 -66q-71 -65 -71 -162z" />
    <glyph glyph-name="atilde" unicode="&#xe3;" horiz-adv-x="1253" 
d="M74 479q0 221 147 359q148 139 340 139q77 0 155 -31.5t124 -95.5v106h282v-956h-282v109q-39 -60 -127 -95q-77 -32 -152 -32q-194 0 -340 137q-147 138 -147 360zM332 1153q6 129 66 197.5t141 68.5q47 0 102 -43q56 -41 76 -41q19 0 35.5 22t17.5 62h154
q-6 -127 -65.5 -194.5t-141.5 -67.5q-44 0 -103 41q-58 43 -75 43q-19 0 -36 -24t-18 -64h-153zM369 479q0 -99 71 -164q72 -63 168 -63q95 0 163.5 63.5t68.5 163.5t-68.5 164t-163.5 64q-93 0 -168 -66q-71 -65 -71 -162z" />
    <glyph glyph-name="adieresis" unicode="&#xe4;" horiz-adv-x="1253" 
d="M74 479q0 221 147 359q148 139 340 139q77 0 155 -31.5t124 -95.5v106h282v-956h-282v109q-39 -60 -127 -95q-77 -32 -152 -32q-194 0 -340 137q-147 138 -147 360zM299 1307q0 57 44 98t106 41q60 0 102.5 -41t42.5 -98q0 -60 -42.5 -101t-102.5 -41q-62 0 -106 41
t-44 101zM369 479q0 -99 71 -164q72 -63 168 -63q95 0 163.5 63.5t68.5 163.5t-68.5 164t-163.5 64q-93 0 -168 -66q-71 -65 -71 -162zM662 1307q0 57 44 98t105 41q60 0 102.5 -41t42.5 -98q0 -60 -42.5 -101t-102.5 -41q-62 0 -105.5 41t-43.5 101z" />
    <glyph glyph-name="aring" unicode="&#xe5;" horiz-adv-x="1253" 
d="M74 479q0 221 147 359q148 139 340 139q77 0 155 -31.5t124 -95.5v106h282v-956h-282v109q-39 -60 -127 -95q-77 -32 -152 -32q-194 0 -340 137q-147 138 -147 360zM369 479q0 -99 71 -164q72 -63 168 -63q95 0 163.5 63.5t68.5 163.5t-68.5 164t-163.5 64
q-93 0 -168 -66q-71 -65 -71 -162zM381 1350q0 106 72 178q71 74 174 74q105 0 176 -74q74 -71 74 -178q0 -103 -74 -174q-72 -72 -176 -72q-102 0 -174 72t-72 174zM514 1350q0 -47 33 -80t80 -33q49 0 82.5 33t33.5 80q0 51 -33 84.5t-83 33.5q-48 0 -80.5 -33.5
t-32.5 -84.5z" />
    <glyph glyph-name="ae" unicode="&#xe6;" horiz-adv-x="1986" 
d="M74 479q0 221 147 359q148 139 340 139q77 0 155 -31.5t124 -95.5v106h282v-79q132 100 312 100q210 0 348 -141q141 -138 141 -363q0 -22 -4 -88h-700q10 -75 77.5 -117.5t157.5 -42.5q137 0 209 90l207 -141q-132 -194 -436 -194q-177 0 -312 102v-82h-282v109
q-39 -60 -127 -95q-77 -32 -152 -32q-194 0 -340 137q-147 138 -147 360zM369 479q0 -99 71 -164q72 -63 168 -63q95 0 163.5 63.5t68.5 163.5t-68.5 164t-163.5 64q-93 0 -168 -66q-71 -65 -71 -162zM1223 563h413q-7 52 -37.5 90t-72.5 55.5t-90.5 17.5t-91.5 -17
t-76.5 -55t-44.5 -91z" />
    <glyph glyph-name="ccedilla" unicode="&#xe7;" horiz-adv-x="1075" 
d="M74 481q0 219 153 357q154 139 367 139q128 0 237.5 -53.5t178.5 -149.5l-232 -166q-63 97 -184 97q-96 0 -166 -64q-72 -63 -72 -160q0 -100 72 -166q69 -63 166 -63q122 0 184 96l232 -164q-126 -176 -351 -200l64 -119q20 -36 20 -101q0 -85 -65 -147
q-63 -63 -154 -63q-62 0 -115 36t-79 97q-20 48 -17 120l158 -8q-3 -29 2 -53q22 -54 80 -39q52 21 31 86l-72 193q-188 27 -313 161t-125 334z" />
    <glyph glyph-name="egrave" unicode="&#xe8;" horiz-adv-x="1126" 
d="M74 481q0 222 143 359t356 137q211 0 349 -141q141 -138 141 -363q0 -22 -4 -88h-701q10 -75 78 -117.5t158 -42.5q137 0 209 90l207 -141q-132 -194 -437 -194q-211 0 -356 139q-143 140 -143 362zM205 1448h282l226 -344h-205zM362 563h414q-7 52 -37.5 90t-72.5 55.5
t-91 17.5t-92 -17t-76.5 -55t-44.5 -91z" />
    <glyph glyph-name="eacute" unicode="&#xe9;" horiz-adv-x="1126" 
d="M74 481q0 222 143 359t356 137q211 0 349 -141q141 -138 141 -363q0 -22 -4 -88h-701q10 -75 78 -117.5t158 -42.5q137 0 209 90l207 -141q-132 -194 -437 -194q-211 0 -356 139q-143 140 -143 362zM362 563h414q-7 52 -37.5 90t-72.5 55.5t-91 17.5t-92 -17t-76.5 -55
t-44.5 -91zM436 1104l226 344h282l-303 -344h-205z" />
    <glyph glyph-name="ecircumflex" unicode="&#xea;" horiz-adv-x="1126" 
d="M74 481q0 222 143 359t356 137q211 0 349 -141q141 -138 141 -363q0 -22 -4 -88h-701q10 -75 78 -117.5t158 -42.5q137 0 209 90l207 -141q-132 -194 -437 -194q-211 0 -356 139q-143 140 -143 362zM203 1112l223 344h283l225 -344h-205l-162 182l-159 -182h-205z
M362 563h414q-7 52 -37.5 90t-72.5 55.5t-91 17.5t-92 -17t-76.5 -55t-44.5 -91z" />
    <glyph glyph-name="edieresis" unicode="&#xeb;" horiz-adv-x="1126" 
d="M74 481q0 222 143 359t356 137q211 0 349 -141q141 -138 141 -363q0 -22 -4 -88h-701q10 -75 78 -117.5t158 -42.5q137 0 209 90l207 -141q-132 -194 -437 -194q-211 0 -356 139q-143 140 -143 362zM240 1307q0 57 44 98t105 41q60 0 103 -41t43 -98q0 -60 -43 -101
t-103 -41q-62 0 -105.5 41t-43.5 101zM362 563h414q-7 52 -37.5 90t-72.5 55.5t-91 17.5t-92 -17t-76.5 -55t-44.5 -91zM602 1307q0 57 44 98t106 41q60 0 102.5 -41t42.5 -98q0 -60 -42.5 -101t-102.5 -41q-62 0 -106 41t-44 101z" />
    <glyph glyph-name="igrave" unicode="&#xec;" horiz-adv-x="542" 
d="M-92 1448h282l226 -344h-205zM131 0v956h281v-956h-281z" />
    <glyph glyph-name="iacute" unicode="&#xed;" horiz-adv-x="542" 
d="M131 0v956h281v-956h-281zM131 1104l225 344h283l-303 -344h-205z" />
    <glyph glyph-name="icircumflex" unicode="&#xee;" horiz-adv-x="542" 
d="M-94 1112l223 344h283l225 -344h-205l-162 182l-159 -182h-205zM131 0v956h281v-956h-281z" />
    <glyph glyph-name="idieresis" unicode="&#xef;" horiz-adv-x="542" 
d="M-61 1307q0 57 44 98t105 41q60 0 102.5 -41t42.5 -98q0 -60 -42.5 -101t-102.5 -41q-62 0 -105.5 41t-43.5 101zM131 0v956h281v-956h-281zM301 1307q0 57 44 98t106 41q60 0 102.5 -41t42.5 -98q0 -60 -42.5 -101t-102.5 -41q-62 0 -106 41t-44 101z" />
    <glyph glyph-name="eth" unicode="&#xf0;" horiz-adv-x="1144" 
d="M76 481q0 220 147 355t359 120l-119 150l-174 -80l-60 100l166 74l-151 211h272l86 -119l176 80l72 -92l-180 -82l305 -420q94 -125 94 -297q0 -221 -145 -360q-143 -137 -353 -137q-209 0 -352 137t-143 360zM356 481q0 -97 61.5 -158t153.5 -61q93 0 155 61t62 158
q0 93 -62 153t-155 60q-92 0 -153.5 -60t-61.5 -153z" />
    <glyph glyph-name="ntilde" unicode="&#xf1;" horiz-adv-x="1163" 
d="M131 0v956h285v-139q38 72 114.5 116t161.5 44q168 0 259 -103.5t91 -302.5v-571h-284v510q0 91 -45 140.5t-121 49.5q-176 0 -176 -194v-506h-285zM285 1153q6 129 66 197.5t141 68.5q47 0 102 -43q56 -41 76 -41q19 0 35.5 22t17.5 62h154q-6 -127 -65.5 -194.5
t-141.5 -67.5q-44 0 -103 41q-58 43 -75 43q-19 0 -36 -24t-18 -64h-153z" />
    <glyph glyph-name="ograve" unicode="&#xf2;" horiz-adv-x="1140" 
d="M74 481q0 221 143 355q143 137 352 137q210 0 353 -137q145 -136 145 -355q0 -221 -145 -360q-143 -137 -353 -137q-209 0 -352 137t-143 360zM160 1448h282l226 -344h-205zM354 481q0 -97 61.5 -158t153.5 -61q93 0 155 61t62 158q0 93 -62 153t-155 60
q-92 0 -153.5 -60t-61.5 -153z" />
    <glyph glyph-name="oacute" unicode="&#xf3;" horiz-adv-x="1140" 
d="M74 481q0 221 143 355q143 137 352 137q210 0 353 -137q145 -136 145 -355q0 -221 -145 -360q-143 -137 -353 -137q-209 0 -352 137t-143 360zM354 481q0 -97 61.5 -158t153.5 -61q93 0 155 61t62 158q0 93 -62 153t-155 60q-92 0 -153.5 -60t-61.5 -153zM449 1104
l225 344h282l-303 -344h-204z" />
    <glyph glyph-name="ocircumflex" unicode="&#xf4;" horiz-adv-x="1140" 
d="M74 481q0 221 143 355q143 137 352 137q210 0 353 -137q145 -136 145 -355q0 -221 -145 -360q-143 -137 -353 -137q-209 0 -352 137t-143 360zM205 1112l223 344h283l225 -344h-205l-162 182l-159 -182h-205zM354 481q0 -97 61.5 -158t153.5 -61q93 0 155 61t62 158
q0 93 -62 153t-155 60q-92 0 -153.5 -60t-61.5 -153z" />
    <glyph glyph-name="otilde" unicode="&#xf5;" horiz-adv-x="1140" 
d="M74 481q0 221 143 355q143 137 352 137q210 0 353 -137q145 -136 145 -355q0 -221 -145 -360q-143 -137 -353 -137q-209 0 -352 137t-143 360zM274 1153q6 129 66 197.5t141 68.5q48 0 103 -43q56 -41 75 -41t36 22t18 62h153q-6 -127 -65.5 -194.5t-141.5 -67.5
q-43 0 -102 41q-58 43 -76 43q-19 0 -35.5 -24t-17.5 -64h-154zM354 481q0 -97 61.5 -158t153.5 -61q93 0 155 61t62 158q0 93 -62 153t-155 60q-92 0 -153.5 -60t-61.5 -153z" />
    <glyph glyph-name="odieresis" unicode="&#xf6;" horiz-adv-x="1140" 
d="M74 481q0 221 143 355q143 137 352 137q210 0 353 -137q145 -136 145 -355q0 -221 -145 -360q-143 -137 -353 -137q-209 0 -352 137t-143 360zM242 1307q0 57 44 98t105 41q60 0 103 -41t43 -98q0 -60 -43 -101t-103 -41q-62 0 -105.5 41t-43.5 101zM354 481
q0 -97 61.5 -158t153.5 -61q93 0 155 61t62 158q0 93 -62 153t-155 60q-92 0 -153.5 -60t-61.5 -153zM604 1307q0 57 44 98t106 41q60 0 102.5 -41t42.5 -98q0 -60 -42.5 -101t-102.5 -41q-62 0 -106 41t-44 101z" />
    <glyph glyph-name="divide" unicode="&#xf7;" horiz-adv-x="1193" 
d="M106 399v197h981v-197h-981zM438 133q0 67 46 110.5t114 43.5t115 -44t47 -110q0 -67 -47 -111.5t-115 -44.5t-114 44.5t-46 111.5zM438 868q0 66 46 110t114 44t115 -44t47 -110q0 -67 -47 -111t-115 -44t-114 44t-46 111z" />
    <glyph glyph-name="oslash" unicode="&#xf8;" horiz-adv-x="1140" 
d="M66 45l114 119q-106 127 -106 317q0 222 143 359t352 137q169 0 308 -103l106 111l96 -94l-108 -111q96 -131 96 -299q0 -221 -145 -360q-143 -137 -353 -137q-161 0 -288 86l-119 -121zM354 481q0 -63 27 -110l293 299q-54 28 -105 28q-91 0 -153 -62t-62 -155zM483 279
q39 -17 86 -17q93 0 155 61t62 158q0 43 -18 90z" />
    <glyph glyph-name="ugrave" unicode="&#xf9;" horiz-adv-x="1163" 
d="M121 385v571h285v-510q0 -96 49.5 -143t119.5 -47q77 0 125 49.5t48 145.5v505h284v-956h-284v131q-36 -68 -105.5 -109.5t-142.5 -41.5q-171 0 -275 106.5t-104 298.5zM268 1448h283l225 -344h-205z" />
    <glyph glyph-name="uacute" unicode="&#xfa;" horiz-adv-x="1163" 
d="M121 385v571h285v-510q0 -96 49.5 -143t119.5 -47q77 0 125 49.5t48 145.5v505h284v-956h-284v131q-36 -68 -105.5 -109.5t-142.5 -41.5q-171 0 -275 106.5t-104 298.5zM397 1104l226 344h282l-303 -344h-205z" />
    <glyph glyph-name="ucircumflex" unicode="&#xfb;" horiz-adv-x="1163" 
d="M121 385v571h285v-510q0 -96 49.5 -143t119.5 -47q77 0 125 49.5t48 145.5v505h284v-956h-284v131q-36 -68 -105.5 -109.5t-142.5 -41.5q-171 0 -275 106.5t-104 298.5zM209 1112l223 344h283l225 -344h-205l-162 182l-159 -182h-205z" />
    <glyph glyph-name="udieresis" unicode="&#xfc;" horiz-adv-x="1163" 
d="M121 385v571h285v-510q0 -96 49.5 -143t119.5 -47q77 0 125 49.5t48 145.5v505h284v-956h-284v131q-36 -68 -105.5 -109.5t-142.5 -41.5q-171 0 -275 106.5t-104 298.5zM236 1307q0 57 44 98t105 41q60 0 102.5 -41t42.5 -98q0 -60 -42.5 -101t-102.5 -41
q-62 0 -105.5 41t-43.5 101zM598 1307q0 57 44 98t106 41q60 0 102.5 -41t42.5 -98q0 -60 -42.5 -101t-102.5 -41q-62 0 -106 41t-44 101z" />
    <glyph glyph-name="yacute" unicode="&#xfd;" horiz-adv-x="1044" 
d="M6 956h303l211 -542l213 542h303l-590 -1425h-301l230 567zM342 1104l225 344h283l-303 -344h-205z" />
    <glyph glyph-name="thorn" unicode="&#xfe;" horiz-adv-x="1232" 
d="M131 -469v1946h283v-637q35 63 111 100t169 37q190 0 326 -139q137 -137 137 -363q0 -221 -137 -358q-134 -137 -326 -137q-94 0 -169.5 37t-110.5 102v-588h-283zM420 481q0 -99 64 -165t157 -66q94 0 157.5 64.5t63.5 166.5q0 99 -64 163.5t-157 64.5q-94 0 -157.5 -63
t-63.5 -165z" />
    <glyph glyph-name="ydieresis" unicode="&#xff;" horiz-adv-x="1044" 
d="M6 956h303l211 -542l213 542h303l-590 -1425h-301l230 567zM199 1307q0 57 44 98t105 41q60 0 103 -41t43 -98q0 -60 -43 -101t-103 -41q-62 0 -105.5 41t-43.5 101zM561 1307q0 57 44 98t106 41q60 0 102.5 -41t42.5 -98q0 -60 -42.5 -101t-102.5 -41q-62 0 -106 41
t-44 101z" />
    <glyph glyph-name="OE" unicode="&#x152;" horiz-adv-x="2234" 
d="M84 702q0 299 207 512q210 213 508 213q254 0 422 -157v141h893v-264h-594v-322h520v-260h-520v-301h612v-264h-911v137q-177 -157 -422 -157q-301 0 -508 210q-207 213 -207 512zM383 702q0 -176 121 -303q120 -123 295 -123q176 0 295 125q123 126 123 301
q0 178 -123 304q-118 124 -295 124t-295 -124q-121 -127 -121 -304z" />
    <glyph glyph-name="oe" unicode="&#x153;" horiz-adv-x="1845" 
d="M74 481q0 222 143 359t352 137q215 0 361 -146q143 146 362 146q207 0 348 -141q142 -139 142 -363q0 -22 -4 -88h-701q10 -75 78 -117.5t158 -42.5q137 0 209 90l207 -141q-132 -194 -437 -194q-221 0 -364 149q-142 -145 -359 -145q-209 0 -352 137t-143 360zM354 481
q0 -97 61.5 -158t153.5 -61q93 0 155 61t62 158q0 93 -63 155t-154 62t-153 -62t-62 -155zM1081 563h414q-7 52 -37.5 90t-72.5 55.5t-91 17.5t-92 -17t-76.5 -55t-44.5 -91z" />
    <glyph glyph-name="Ydieresis" unicode="&#x178;" horiz-adv-x="1333" 
d="M-31 1411h357l340 -528l344 528h356l-547 -776v-635h-305v639zM338 1761q0 57 44 98.5t105 41.5q60 0 103 -41.5t43 -98.5q0 -60 -43 -100.5t-103 -40.5q-62 0 -105.5 40.5t-43.5 100.5zM700 1761q0 57 44.5 98.5t105.5 41.5q60 0 102.5 -41.5t42.5 -98.5
q0 -60 -42.5 -100.5t-102.5 -40.5q-62 0 -106 41t-44 100z" />
    <glyph glyph-name="circumflex" unicode="&#x2c6;" horiz-adv-x="1161" 
d="M215 1112l223 344h283l225 -344h-205l-161 182l-160 -182h-205z" />
    <glyph glyph-name="tilde" unicode="&#x2dc;" horiz-adv-x="919" 
d="M160 1153q6 129 66 197.5t141 68.5q47 0 102 -43q56 -41 76 -41q19 0 35.5 22t17.5 62h154q-6 -127 -65.5 -194.5t-141.5 -67.5q-44 0 -103 41q-58 43 -75 43q-19 0 -36 -24t-18 -64h-153z" />
    <glyph glyph-name="uni2000" unicode="&#x2000;" horiz-adv-x="1028" 
 />
    <glyph glyph-name="uni2001" unicode="&#x2001;" horiz-adv-x="2056" 
 />
    <glyph glyph-name="uni2002" unicode="&#x2002;" horiz-adv-x="1028" 
 />
    <glyph glyph-name="uni2003" unicode="&#x2003;" horiz-adv-x="2056" 
 />
    <glyph glyph-name="uni2004" unicode="&#x2004;" horiz-adv-x="685" 
 />
    <glyph glyph-name="uni2005" unicode="&#x2005;" horiz-adv-x="514" 
 />
    <glyph glyph-name="uni2006" unicode="&#x2006;" horiz-adv-x="342" 
 />
    <glyph glyph-name="uni2007" unicode="&#x2007;" horiz-adv-x="342" 
 />
    <glyph glyph-name="uni2008" unicode="&#x2008;" horiz-adv-x="257" 
 />
    <glyph glyph-name="uni2009" unicode="&#x2009;" horiz-adv-x="411" 
 />
    <glyph glyph-name="uni200A" unicode="&#x200a;" horiz-adv-x="114" 
 />
    <glyph glyph-name="uni2010" unicode="&#x2010;" horiz-adv-x="972" 
d="M125 391v225h723v-225h-723z" />
    <glyph glyph-name="uni2011" unicode="&#x2011;" horiz-adv-x="972" 
d="M125 391v225h723v-225h-723z" />
    <glyph glyph-name="figuredash" unicode="&#x2012;" horiz-adv-x="972" 
d="M125 391v225h723v-225h-723z" />
    <glyph glyph-name="endash" unicode="&#x2013;" horiz-adv-x="1298" 
d="M123 354v254h1053v-254h-1053z" />
    <glyph glyph-name="emdash" unicode="&#x2014;" horiz-adv-x="1734" 
d="M123 354v254h1489v-254h-1489z" />
    <glyph glyph-name="quoteleft" unicode="&#x2018;" horiz-adv-x="575" 
d="M98 831q0 174 107 345q108 172 209 251l110 -63q-22 -30 -69 -100q-15 -22 -56 -103q-67 -134 -67 -330h-234z" />
    <glyph glyph-name="quoteright" unicode="&#x2019;" horiz-adv-x="557" 
d="M70 895q22 30 69 100q15 22 56 103q67 134 67 329h234q0 -170 -109 -344q-111 -177 -207 -252z" />
    <glyph glyph-name="quotesinglbase" unicode="&#x201a;" horiz-adv-x="524" 
d="M-25 -190q32 43 70 100q13 19 55 102q68 136 68 330h233q0 -172 -108 -344q-111 -177 -207 -252z" />
    <glyph glyph-name="quotedblleft" unicode="&#x201c;" horiz-adv-x="925" 
d="M98 831q0 174 107 345q108 172 209 251l110 -63q-22 -30 -69 -100q-15 -22 -56 -103q-67 -134 -67 -330h-234zM449 831q0 176 106 345q108 172 209 251l110 -63q-22 -30 -69 -100q-10 -16 -55 -103q-68 -136 -68 -330h-233z" />
    <glyph glyph-name="quotedblright" unicode="&#x201d;" horiz-adv-x="907" 
d="M70 895q22 30 69 100q15 22 56 103q67 134 67 329h234q0 -170 -109 -344q-111 -177 -207 -252zM420 895q22 30 69 100q15 22 56 103q67 134 67 329h234q0 -170 -109 -344q-111 -177 -207 -252z" />
    <glyph glyph-name="quotedblbase" unicode="&#x201e;" horiz-adv-x="874" 
d="M-25 -190q32 43 70 100q13 19 55 102q68 136 68 330h233q0 -172 -108 -344q-111 -177 -207 -252zM326 -190q22 30 69 100q17 25 56 102q67 134 67 330h234q0 -170 -109 -344q-111 -177 -207 -252z" />
    <glyph glyph-name="bullet" unicode="&#x2022;" horiz-adv-x="999" 
d="M172 487q0 136 96 226t232 90q135 0 231 -90t96 -226q0 -135 -96 -225t-231 -90q-136 0 -232 90t-96 225z" />
    <glyph glyph-name="ellipsis" unicode="&#x2026;" horiz-adv-x="1771" 
d="M109 152q0 73 51 121.5t125 48.5t126 -49t52 -121q0 -73 -52 -122.5t-126 -49.5t-125 49.5t-51 122.5zM709 152q0 73 51 121.5t125 48.5t126 -49t52 -121q0 -73 -52 -122.5t-126 -49.5t-125 49.5t-51 122.5zM1309 152q0 73 51 121.5t125 48.5t126 -49t52 -121
q0 -73 -52 -122.5t-126 -49.5t-125 49.5t-51 122.5z" />
    <glyph glyph-name="uni202F" unicode="&#x202f;" horiz-adv-x="411" 
 />
    <glyph glyph-name="guilsinglleft" unicode="&#x2039;" horiz-adv-x="671" 
d="M80 477l282 424h222l-283 -424l283 -424h-222z" />
    <glyph glyph-name="guilsinglright" unicode="&#x203a;" horiz-adv-x="671" 
d="M88 53l283 424l-283 424h221l283 -424l-283 -424h-221z" />
    <glyph glyph-name="uni205F" unicode="&#x205f;" horiz-adv-x="514" 
 />
    <glyph glyph-name="Euro" unicode="&#x20ac;" horiz-adv-x="1697" 
d="M94 524v129h1010v-129h-475q45 -119 146 -190.5t229 -71.5q106 0 198 52.5t154 142.5l241 -168q-95 -144 -250.5 -226.5t-342.5 -82.5q-251 0 -443 151q-187 153 -246 393h-221zM94 762v129h223q57 233 248 385q189 151 439 151q182 0 337 -80.5t250 -218.5l-243 -167
q-126 184 -344 184q-126 0 -224.5 -68.5t-146.5 -185.5h471v-129h-1010z" />
    <glyph glyph-name="trademark" unicode="&#x2122;" horiz-adv-x="1742" 
d="M127 1257v154h795l227 -463l221 463h148l90 -745h-172l-52 454l-174 -370h-123l-174 370l-55 -454h-170l74 591h-221v-591h-172v591h-242z" />
    <glyph glyph-name="uni25FC" unicode="&#x25fc;" horiz-adv-x="952" 
d="M0 0v952h952v-952h-952z" />
    </font>
</defs>
</svg>
